+ filenameToUse=/home/horvathandras/vatic/vatic/public/videouploads/DJI_0002_30m_jelolt_ragas_egy_sorban_homokmegy_20190521_diffuz_napraforgo_T1.avi
+ filenameNoDot=DJI_0002_30m_jelolt_ragas_egy_sorban_homokmegy_20190521_diffuz_napraforgo_T1
+ FullUploadPath=/home/horvathandras/vatic/vatic/public/videouploads/DJI_0002_30m_jelolt_ragas_egy_sorban_homokmegy_20190521_diffuz_napraforgo_T1.avi
+ VideoDataDir=/home/horvathandras/vatic/vatic/videos
+ AvailableObjectTypes='PozitívROI NegatívROI Túrás ~Friss ~1-2Hetes ~Régebbi ~Egyéb1 ~Egyéb2 ~Egyéb3 Rágás ~Friss ~1-2Hetes ~Régebbi ~Egyéb1 ~Egyéb2 ~Egyéb3 Törés ~Friss ~1-2Hetes ~Régebbi ~Egyéb1 ~Egyéb2 ~Egyéb3 Taposás ~Friss ~1-2Hetes ~Régebbi ~Egyéb1 ~Egyéb2 ~Egyéb3 EgészségesNövény Egyéb1 Egyéb2 Egyéb3 Egyéb4 Egyéb5 Bizonytalan Művelőút Gktaposás Vetőhiba Széldöntés Jégkár Belvíz Aszály Erózió EgyszikűGyom KétszikűGyom EgyébNövvédelmiPR'
++ dirname /home/horvathandras/vatic/vatic/vatic_publisher.sh
+ cd /home/horvathandras/vatic/vatic
+ touch /home/horvathandras/vatic/vatic/public/videouploads/DJI_0002_30m_jelolt_ragas_egy_sorban_homokmegy_20190521_diffuz_napraforgo_T1.avi
+ chmod 744 /home/horvathandras/vatic/vatic/public/videouploads/DJI_0002_30m_jelolt_ragas_egy_sorban_homokmegy_20190521_diffuz_napraforgo_T1.avi
+ mkdir /home/horvathandras/vatic/vatic/videos/DJI_0002_30m_jelolt_ragas_egy_sorban_homokmegy_20190521_diffuz_napraforgo_T1
mkdir: cannot create directory '/home/horvathandras/vatic/vatic/videos/DJI_0002_30m_jelolt_ragas_egy_sorban_homokmegy_20190521_diffuz_napraforgo_T1': File exists
+ turkic extract /home/horvathandras/vatic/vatic/public/videouploads/DJI_0002_30m_jelolt_ragas_egy_sorban_homokmegy_20190521_diffuz_napraforgo_T1.avi /home/horvathandras/vatic/vatic/videos/DJI_0002_30m_jelolt_ragas_egy_sorban_homokmegy_20190521_diffuz_napraforgo_T1 --no-resize
ffmpeg version 2.8.14-0ubuntu0.16.04.1 Copyright (c) 2000-2018 the FFmpeg developers
  built with gcc 5.4.0 (Ubuntu 5.4.0-6ubuntu1~16.04.9) 20160609
  configuration: --prefix=/usr --extra-version=0ubuntu0.16.04.1 --build-suffix=-ffmpeg --toolchain=hardened --libdir=/usr/lib/x86_64-linux-gnu --incdir=/usr/include/x86_64-linux-gnu --cc=cc --cxx=g++ --enable-gpl --enable-shared --disable-stripping --disable-decoder=libopenjpeg --disable-decoder=libschroedinger --enable-avresample --enable-avisynth --enable-gnutls --enable-ladspa --enable-libass --enable-libbluray --enable-libbs2b --enable-libcaca --enable-libcdio --enable-libflite --enable-libfontconfig --enable-libfreetype --enable-libfribidi --enable-libgme --enable-libgsm --enable-libmodplug --enable-libmp3lame --enable-libopenjpeg --enable-libopus --enable-libpulse --enable-librtmp --enable-libschroedinger --enable-libshine --enable-libsnappy --enable-libsoxr --enable-libspeex --enable-libssh --enable-libtheora --enable-libtwolame --enable-libvorbis --enable-libvpx --enable-libwavpack --enable-libwebp --enable-libx265 --enable-libxvid --enable-libzvbi --enable-openal --enable-opengl --enable-x11grab --enable-libdc1394 --enable-libiec61883 --enable-libzmq --enable-frei0r --enable-libx264 --enable-libopencv
  libavutil      54. 31.100 / 54. 31.100
  libavcodec     56. 60.100 / 56. 60.100
  libavformat    56. 40.101 / 56. 40.101
  libavdevice    56.  4.100 / 56.  4.100
  libavfilter     5. 40.101 /  5. 40.101
  libavresample   2.  1.  0 /  2.  1.  0
  libswscale      3.  1.101 /  3.  1.101
  libswresample   1.  2.101 /  1.  2.101
  libpostproc    53.  3.100 / 53.  3.100
Input #0, mov,mp4,m4a,3gp,3g2,mj2, from '/home/horvathandras/vatic/vatic/public/videouploads/DJI_0002_30m_jelolt_ragas_egy_sorban_homokmegy_20190521_diffuz_napraforgo_T1.avi':
  Metadata:
    major_brand     : qt  
    minor_version   : 537986816
    compatible_brands: qt  
    creation_time   : 2019-05-21 09:43:42
    location        : +46.470830+19.109641+30.500
    location-{    : +46.470830+19.109641+30.500
    comment         : DE=D-Cinelike, Mode=P, DSW=0001
  Duration: 00:00:09.12, start: 0.000000, bitrate: 102551 kb/s
    Stream #0:0(eng): Video: h264 (High) (avc1 / 0x31637661), yuv420p(tv, bt709), 4096x2160 [SAR 1:1 DAR 256:135], 102338 kb/s, 50 fps, 50 tbr, 50k tbn, 100 tbc (default)
    Metadata:
      creation_time   : 2019-05-21 09:43:42
      handler_name    : DJI.AVC
      encoder         : AVC encoder
    Stream #0:1(eng): Data: none (priv / 0x76697270), 188 kb/s
    Metadata:
      creation_time   : 2019-05-21 09:43:42
      handler_name    : DJI.Meta
Please use -b:a or -b:v, -b is ambiguous
[swscaler @ 0x212dc00] deprecated pixel format used, make sure you did set range correctly
Output #0, image2, to '/tmp/pyvision-ffmpeg-54256924/%d.jpg':
  Metadata:
    major_brand     : qt  
    minor_version   : 537986816
    compatible_brands: qt  
    comment         : DE=D-Cinelike, Mode=P, DSW=0001
    location        : +46.470830+19.109641+30.500
    location-{    : +46.470830+19.109641+30.500
    encoder         : Lavf56.40.101
    Stream #0:0(eng): Video: mjpeg, yuvj420p(pc), 4096x2160 [SAR 1:1 DAR 256:135], q=2-31, 10000 kb/s, 50 fps, 50 tbn, 50 tbc (default)
    Metadata:
      creation_time   : 2019-05-21 09:43:42
      handler_name    : DJI.AVC
      encoder         : Lavc56.60.100 mjpeg
Stream mapping:
  Stream #0:0 -> #0:0 (h264 (native) -> mjpeg (native))
Press [q] to stop, [?] for help
frame=    2 fps=0.0 q=12.0 size=N/A time=00:00:00.04 bitrate=N/A    frame=    7 fps=6.6 q=24.8 size=N/A time=00:00:00.14 bitrate=N/A    frame=   13 fps=8.1 q=24.8 size=N/A time=00:00:00.26 bitrate=N/A    frame=   19 fps=8.8 q=24.8 size=N/A time=00:00:00.38 bitrate=N/A    frame=   24 fps=9.0 q=24.8 size=N/A time=00:00:00.48 bitrate=N/A    frame=   30 fps=9.4 q=24.8 size=N/A time=00:00:00.60 bitrate=N/A    frame=   36 fps=9.5 q=24.8 size=N/A time=00:00:00.72 bitrate=N/A    frame=   42 fps=9.7 q=24.8 size=N/A time=00:00:00.84 bitrate=N/A    frame=   48 fps=9.9 q=24.8 size=N/A time=00:00:00.96 bitrate=N/A    frame=   54 fps= 10 q=24.8 size=N/A time=00:00:01.08 bitrate=N/A    frame=   60 fps= 10 q=24.8 size=N/A time=00:00:01.20 bitrate=N/A    frame=   66 fps= 10 q=24.8 size=N/A time=00:00:01.32 bitrate=N/A    frame=   72 fps= 10 q=24.8 size=N/A time=00:00:01.44 bitrate=N/A    frame=   78 fps= 10 q=24.8 size=N/A time=00:00:01.56 bitrate=N/A    frame=   84 fps= 10 q=24.8 size=N/A time=00:00:01.68 bitrate=N/A    frame=   90 fps= 10 q=24.8 size=N/A time=00:00:01.80 bitrate=N/A    frame=   96 fps= 10 q=24.8 size=N/A time=00:00:01.92 bitrate=N/A    frame=  102 fps= 10 q=24.8 size=N/A time=00:00:02.04 bitrate=N/A    frame=  108 fps= 10 q=24.8 size=N/A time=00:00:02.16 bitrate=N/A    frame=  114 fps= 11 q=24.8 size=N/A time=00:00:02.28 bitrate=N/A    frame=  120 fps= 11 q=24.8 size=N/A time=00:00:02.40 bitrate=N/A    frame=  126 fps= 11 q=24.8 size=N/A time=00:00:02.52 bitrate=N/A    frame=  132 fps= 11 q=24.8 size=N/A time=00:00:02.64 bitrate=N/A    frame=  138 fps= 11 q=24.8 size=N/A time=00:00:02.76 bitrate=N/A    frame=  144 fps= 11 q=24.8 size=N/A time=00:00:02.88 bitrate=N/A    frame=  150 fps= 11 q=24.8 size=N/A time=00:00:03.00 bitrate=N/A    frame=  156 fps= 11 q=24.8 size=N/A time=00:00:03.12 bitrate=N/A    frame=  162 fps= 11 q=24.8 size=N/A time=00:00:03.24 bitrate=N/A    frame=  168 fps= 11 q=24.8 size=N/A time=00:00:03.36 bitrate=N/A    frame=  174 fps= 11 q=24.8 size=N/A time=00:00:03.48 bitrate=N/A    frame=  179 fps= 11 q=24.8 size=N/A time=00:00:03.58 bitrate=N/A    frame=  185 fps= 11 q=24.8 size=N/A time=00:00:03.70 bitrate=N/A    frame=  191 fps= 11 q=24.8 size=N/A time=00:00:03.82 bitrate=N/A    frame=  197 fps= 11 q=24.8 size=N/A time=00:00:03.94 bitrate=N/A    frame=  203 fps= 11 q=24.8 size=N/A time=00:00:04.06 bitrate=N/A    frame=  209 fps= 11 q=24.8 size=N/A time=00:00:04.18 bitrate=N/A    frame=  214 fps= 11 q=24.8 size=N/A time=00:00:04.28 bitrate=N/A    frame=  220 fps= 11 q=24.8 size=N/A time=00:00:04.40 bitrate=N/A    frame=  226 fps= 11 q=24.8 size=N/A time=00:00:04.52 bitrate=N/A    frame=  232 fps= 11 q=24.8 size=N/A time=00:00:04.64 bitrate=N/A    frame=  237 fps= 11 q=24.8 size=N/A time=00:00:04.74 bitrate=N/A    frame=  243 fps= 11 q=24.8 size=N/A time=00:00:04.86 bitrate=N/A    frame=  249 fps= 11 q=24.8 size=N/A time=00:00:04.98 bitrate=N/A    frame=  255 fps= 11 q=24.8 size=N/A time=00:00:05.10 bitrate=N/A    frame=  261 fps= 11 q=24.8 size=N/A time=00:00:05.22 bitrate=N/A    frame=  267 fps= 11 q=24.8 size=N/A time=00:00:05.34 bitrate=N/A    frame=  272 fps= 11 q=24.8 size=N/A time=00:00:05.44 bitrate=N/A    frame=  278 fps= 11 q=24.8 size=N/A time=00:00:05.56 bitrate=N/A    frame=  284 fps= 11 q=24.8 size=N/A time=00:00:05.68 bitrate=N/A    frame=  290 fps= 11 q=24.8 size=N/A time=00:00:05.80 bitrate=N/A    frame=  296 fps= 11 q=24.8 size=N/A time=00:00:05.92 bitrate=N/A    frame=  302 fps= 11 q=24.8 size=N/A time=00:00:06.04 bitrate=N/A    frame=  308 fps= 11 q=24.8 size=N/A time=00:00:06.16 bitrate=N/A    frame=  314 fps= 11 q=24.8 size=N/A time=00:00:06.28 bitrate=N/A    frame=  320 fps= 11 q=24.8 size=N/A time=00:00:06.40 bitrate=N/A    frame=  326 fps= 11 q=24.8 size=N/A time=00:00:06.52 bitrate=N/A    frame=  332 fps= 11 q=24.8 size=N/A time=00:00:06.64 bitrate=N/A    frame=  337 fps= 11 q=24.8 size=N/A time=00:00:06.74 bitrate=N/A    frame=  343 fps= 11 q=24.8 size=N/A time=00:00:06.86 bitrate=N/A    frame=  349 fps= 11 q=24.8 size=N/A time=00:00:06.98 bitrate=N/A    frame=  355 fps= 11 q=24.8 size=N/A time=00:00:07.10 bitrate=N/A    frame=  361 fps= 11 q=24.8 size=N/A time=00:00:07.22 bitrate=N/A    frame=  367 fps= 11 q=24.8 size=N/A time=00:00:07.34 bitrate=N/A    frame=  373 fps= 11 q=24.8 size=N/A time=00:00:07.46 bitrate=N/A    frame=  379 fps= 11 q=24.8 size=N/A time=00:00:07.58 bitrate=N/A    frame=  385 fps= 11 q=24.8 size=N/A time=00:00:07.70 bitrate=N/A    frame=  391 fps= 11 q=24.8 size=N/A time=00:00:07.82 bitrate=N/A    frame=  397 fps= 11 q=24.8 size=N/A time=00:00:07.94 bitrate=N/A    frame=  403 fps= 11 q=24.8 size=N/A time=00:00:08.06 bitrate=N/A    frame=  409 fps= 11 q=24.8 size=N/A time=00:00:08.18 bitrate=N/A    frame=  415 fps= 11 q=24.8 size=N/A time=00:00:08.30 bitrate=N/A    frame=  421 fps= 11 q=24.8 size=N/A time=00:00:08.42 bitrate=N/A    frame=  427 fps= 11 q=24.8 size=N/A time=00:00:08.54 bitrate=N/A    frame=  433 fps= 11 q=24.8 size=N/A time=00:00:08.66 bitrate=N/A    frame=  439 fps= 11 q=24.8 size=N/A time=00:00:08.78 bitrate=N/A    frame=  445 fps= 11 q=24.8 size=N/A time=00:00:08.90 bitrate=N/A    frame=  451 fps= 11 q=24.8 size=N/A time=00:00:09.02 bitrate=N/A    frame=  456 fps= 11 q=24.8 size=N/A time=00:00:09.12 bitrate=N/A    frame=  456 fps= 11 q=24.8 Lsize=N/A time=00:00:09.12 bitrate=N/A    
video:14+ turkic load DJI_0002_30m_jelolt_ragas_egy_sorban_homokmegy_20190521_diffuz_napraforgo_T1 /+ turkic load DJI_0002_30m_jelolt_ragas_egy_sorban_homokmegy_20190521_diffuz_napraforgo_T1 /home/horvathandras/vatic/vatic/videos/DJI_0002_30m_jelolt_ragas_egy_sorban_homokmegy_20190521_diffuz_napraforgo_T1 $'Pozit\303\255vROI' $'Negat\303\255vROI' $'T\303\272r\303\241s' '~Friss' '~1-2Hetes' '~Régebbi' '~Egyéb1' '~Egyéb2' '~Egyéb3' $'R\303\241g\303\241s' '~Friss' '~1-2Hetes' '~Régebbi' '~Egyéb1' '~Egyéb2' '~Egyéb3' $'T\303\266r\303\251s' '~Friss' '~1-2Hetes' '~Régebbi' '~Egyéb1' '~Egyéb2' '~Egyéb3' $'Tapos\303\241s' '~Friss' '~1-2Hetes' '~Régebbi' '~Egyéb1' '~Egyéb2' '~Egyéb3' $'Eg\303\251szs\303\251gesN\303\266v\303\251ny' $'Egy\303\251b1' $'Egy\303\251b2' $'Egy\303\251b3' $'Egy\303\251b4' $'Egy\303\251b5' Bizonytalan $'M\305\261vel\305\221\303\272t' $'Gktapos\303\241s' $'Vet\305\221hiba' $'Sz\303\251ld\303\266nt\303\251s' $'J\303\251gk\303\241r' $'Belv\303\255z' $'Asz\303\241ly' $'Er\303\263zi\303\263' $'Egyszik\305\261Gyom' $'K\303\251tszik\305\261Gyom' $'Egy\303\251bN\303\266vv\303\251delmiPR' --offline --title '$filenameNoDot Video' --length 1000 --description 'vatic annotation'
+ turkic publish --offline
+ mkdir /home/horvathandras/vatic/vatic/public/videothumbnails/DJI_0002_30m_jelolt_ragas_egy_sorban_homokmegy_20190521_diffuz_napraforgo_T1
mkdir: cannot create directory '/home/horvathandras/vatic/vatic/public/videothumbnails/DJI_0002_30m_jelolt_ragas_egy_sorban_homokmegy_20190521_diffuz_napraforgo_T1': File exists
+ cp /home/horvathandras/vatic/vatic/videos/DJI_0002_30m_jelolt_ragas_egy_sorban_homokmegy_20190521_diffuz_napraforgo_T1/0/0/31.jpg /home/horvathandras/vatic/vatic/public/videothumbnails/DJI_0002_30m_jelolt_ragas_egy_sorban_homokmegy_20190521_diffuz_napraforgo_T1/thumb.jpg
